<?xml version="1.0" encoding="UTF-8"?>
<svg width="330px" height="330px" viewBox="0 0 330 330" version="1.1" xmlns="http://www.w3.org/2000/svg" xmlns:xlink="http://www.w3.org/1999/xlink">
    <!-- Generator: Sketch 50 (54983) - http://www.bohemiancoding.com/sketch -->
    <title>Group</title>
    <desc>Created with Sketch.</desc>
    <defs></defs>
    <g id="Page-2" stroke="none" stroke-width="1" fill="none" fill-rule="evenodd">
        <g id="Group">
            <path d="M164.763686,329.272881 C255.371059,329.272881 329.270085,255.375254 329.270085,164.766483 C329.270085,74.1591102 255.371059,0.260084746 164.763686,0.260084746 C74.1563136,0.260084746 0.257288136,74.1591102 0.257288136,164.766483 C0.257288136,255.375254 74.1563136,329.272881 164.763686,329.272881" id="Fill-76" fill="#FBF6EC"></path>
            <path d="M138.567839,327.171229 C60.1956356,314.611653 0.257288136,246.695975 0.257288136,164.766483 C0.257288136,79.3873729 65.3162288,9.20783898 148.539153,1.06830508 C226.96589,13.5733475 286.849703,81.5435593 286.849703,163.473051 C286.849703,248.852161 221.790763,319.031695 138.567839,327.171229" id="Fill-78" fill="#FFFFFE"></path>
            <path d="M58.8476695,257.046229 C61.5967373,253.70428 71.4072458,257.369237 80.7311441,265.131229 C90.0564407,272.891822 95.3923729,281.89411 92.6433051,285.181525 C89.8942373,288.470339 80.0851271,284.858517 70.7598305,277.096525 C61.4345339,269.334534 56.0986017,260.333644 58.8476695,257.046229" id="Fill-79" fill="#FBF6EC"></path>
            <path d="M158.565,302.807161 C158.349661,300.650975 167.997966,298.656992 180.125466,298.387119 C192.252966,298.06411 202.278814,299.57428 202.494153,301.729068 C202.656356,303.885254 193.008051,305.880636 180.880551,306.14911 C168.753051,306.418983 158.727203,304.910212 158.565,302.807161" id="Fill-80" fill="#FBF6EC"></path>
            <path d="M113.234746,261.357203 C115.174195,257.476907 125.523051,258.715805 136.411653,264.160805 C147.300254,269.551271 154.577034,277.04339 152.636186,280.870551 C150.749873,284.750847 140.346483,283.457415 129.457881,278.066949 C118.623814,272.676483 111.347034,265.184364 113.234746,261.357203" id="Fill-81" fill="#FBF6EC"></path>
            <path d="M193.11572,46.8851695 C194.356017,42.735 204.758008,42.1952542 216.401695,45.6448729 C228.043983,49.0944915 236.506525,55.2400424 235.266229,59.3902119 C234.027331,63.4858475 223.623941,64.0255932 211.981653,60.5759746 C200.337966,57.1263559 191.875424,50.9808051 193.11572,46.8851695" id="Fill-83" fill="#FBF6EC"></path>
            <path d="M85.4755932,92.862839 C82.779661,83.6452119 88.870678,71.5708475 99.1118644,65.8042373 C109.353051,60.0907627 119.809576,62.8929661 122.450975,72.1105932 C125.146907,81.3282203 119.05589,93.4011864 108.814703,99.1691949 C98.5735169,104.882669 88.1155932,102.079068 85.4755932,92.862839" id="Fill-84" fill="#FBF6EC"></path>
            <path d="M26.8838136,137.384873 C30.7109746,137.330339 33.8921186,145.955085 33.9997881,156.681483 C34.1074576,167.407881 31.0885169,176.085763 27.3158898,176.140297 C23.5418644,176.193432 20.3621186,167.515551 20.2544492,156.843686 C20.1467797,146.117288 23.1111864,137.384873 26.8838136,137.384873" id="Fill-85" fill="#FBF6EC"></path>
            <path d="M273.051229,252.626186 C270.679703,251.548093 274.452331,240.336483 281.459237,227.616102 C288.467542,214.894322 296.067331,205.40822 298.384322,206.486314 C300.755847,207.564407 296.98322,218.776017 289.976314,231.550932 C282.969407,244.271314 275.369619,253.70428 273.051229,252.626186" id="Fill-86" fill="#E7D5C9"></path>
            <path d="M134.578475,227.992246 C134.31,228.099915 134.040127,228.154449 133.770254,228.262119 C114.312839,233.814788 93.6682627,221.200678 87.5772458,200.017754 C82.1336441,181.045551 90.3794492,161.586737 106.173305,153.824746 C106.443178,153.717076 106.711653,153.662542 106.981525,153.609407 C126.440339,148.003602 147.138051,160.616314 153.174534,181.799237 C158.619534,200.772839 150.425466,220.231653 134.578475,227.992246" id="Fill-87" fill="#FBF6EC"></path>
        </g>
    </g>
</svg>