<svg width="751" height="488" viewBox="0 0 751 488" fill="none" xmlns="http://www.w3.org/2000/svg">
<path d="M287.077 24.4489C292.272 14.2643 306.824 14.2642 312.019 24.4489L425.357 246.638C430.108 255.953 423.342 267 412.885 267H186.21C175.754 267 168.988 255.953 173.739 246.639L287.077 24.4489Z" fill="#7CA2A5"/>
<path d="M580.769 156.449C585.964 146.264 600.516 146.264 605.711 156.449L719.049 378.638C723.8 387.953 717.034 399 706.578 399H479.903C469.446 399 462.68 387.953 467.432 378.639L580.769 156.449Z" fill="#7CA2A5"/>
<path d="M449.798 87.4489C454.993 77.2643 469.545 77.2642 474.741 87.4489L588.078 309.638C592.829 318.953 586.063 330 575.607 330H348.932C338.475 330 331.709 318.953 336.461 309.639L449.798 87.4489Z" fill="#7CA2A5"/>
<path d="M145.191 94.4489C150.387 84.2643 164.939 84.2642 170.134 94.4489L283.471 316.638C288.223 325.953 281.457 337 271 337H44.3252C33.8686 337 27.1026 325.953 31.854 316.639L145.191 94.4489Z" fill="#7CA2A5"/>
</svg>
