<svg xmlns="http://www.w3.org/2000/svg" viewBox="0 0 350.38 115.68"><defs><style>.cls-1{fill:#e63535}.cls-2{fill:#b71c18}.cls-3{fill:#625d6b}</style></defs><g id="Layer_2" data-name="Layer 2"><g id="Layer_1-2" data-name="Layer 1"><path class="cls-1" d="M335.18 58.71c-11.38-7.06-48.08-16.09-99.58-16.09l-27.21-32A30.07 30.07 0 00185.46 0H104a36.11 36.11 0 00-23.57 8.79l-32.1 27.74-34.24 4.93a12.11 12.11 0 00-10 9.1L0 67l90.62 42.62h253.72V75.17a19.34 19.34 0 00-9.16-16.46z"/><path class="cls-2" d="M344.34 79.15c0-12.18-18.13-24.36-102.7-24.36H6a6.07 6.07 0 00-6 6.09v36.53l114.78 18.27h229.56V79.15z"/><path class="cls-1" d="M344.34 103.5H61.07l-53.72-12a6.09 6.09 0 00-2.62 11.89l54.37 12.14a5.79 5.79 0 001.31.15h283.92a6.09 6.09 0 000-12.18z"/><path class="cls-1" d="M241.64 91.33H114.78a6.09 6.09 0 010-12.18h126.86a6.09 6.09 0 010 12.18z"/><path class="cls-1" d="M344.34 91.33h-6a6.09 6.09 0 010-12.18h6a6.09 6.09 0 010 12.18z"/><path class="cls-2" d="M48.33 36.53l32.1-27.74A36.11 36.11 0 01104 0h81.44a30.09 30.09 0 0122.93 10.63l27.21 32h-143a96.17 96.17 0 01-15.89-1.33z"/><path class="cls-3" d="M178.81 10.47a12 12 0 00-9.28-4.38h-55.79a12 12 0 00-8.54 3.57L87.08 27.92a8.62 8.62 0 006 14.7H199a3 3 0 002.32-5z"/><path d="M126.86 42.62h-18.12l12.08-36.53h12.08z" fill="#504b5a"/><path d="M337.85 60.88h-5.6a6.09 6.09 0 000 12.18h11.81a19.13 19.13 0 00-6.21-12.18z" fill="#ededee"/><path class="cls-3" d="M208.39 10.63a29.9 29.9 0 00-4.81-4.54h-9.86a3 3 0 00-2.32 5l22.45 27.16a12 12 0 009.28 4.38h12.47z"/><path d="M0 60.88V67h12.08a6.09 6.09 0 000-12.17H6a6.06 6.06 0 00-6 6.05z" fill="#ff6464"/></g></g></svg>