<svg width="66" height="74" viewBox="0 0 66 74" fill="none" xmlns="http://www.w3.org/2000/svg">
<path d="M7.11908 32.5582C3.9932 28.9054 4.39767 23.3909 8.02195 20.2404C11.6462 17.0906 17.1184 17.4976 20.2437 21.1504C21.1261 22.1821 21.7568 23.4063 22.0858 24.7272C24.8609 18.9408 31.7644 16.5181 37.5057 19.315C43.2462 22.1119 45.6501 29.0696 42.875 34.856C42.2392 36.1813 41.36 37.3727 40.2839 38.3677C45.1612 41.1066 46.9127 47.3115 44.1951 52.2278C43.9031 52.7559 43.5651 53.2569 43.1849 53.7245C44.6999 54.2931 46.0584 55.2192 47.1465 56.4241C51.7018 54.9442 56.5849 57.4661 58.0533 62.0572C58.3293 62.9201 58.4705 63.8204 58.4711 64.7272H65.6922V73.4611H39.6954C34.8168 73.4579 30.636 69.9429 29.7574 65.1058C24.7772 67.6213 18.7165 65.5914 16.2207 60.5721C15.6418 59.4077 15.2903 58.1416 15.1849 56.8433C8.05965 57.669 1.6194 52.5157 0.800873 45.3345C0.214928 40.1908 2.6916 35.1831 7.11908 32.5582Z" fill="white"/>
<path d="M7.9216 6.50268C7.9216 9.71817 10.5082 12.3251 13.6992 12.3251C16.8896 12.3251 19.4762 9.71817 19.4762 6.50268C19.4762 3.2872 16.8896 0.680298 13.6992 0.680298C10.5082 0.680298 7.9216 3.2872 7.9216 6.50268Z" fill="white"/>
<path d="M51.25 44.3485C51.25 46.7603 53.19 48.7155 55.583 48.7155C57.9759 48.7155 59.9152 46.7603 59.9152 44.3485C59.9152 41.9367 57.9759 39.9816 55.583 39.9816C53.19 39.9816 51.25 41.9367 51.25 44.3485Z" fill="white"/>
<path d="M5.03343 64.7272C5.03343 66.3352 6.32672 67.6387 7.92225 67.6387C9.51713 67.6387 10.8104 66.3352 10.8104 64.7272C10.8104 63.1198 9.51713 61.8163 7.92225 61.8163C6.32672 61.8163 5.03343 63.1198 5.03343 64.7272Z" fill="white"/>
</svg>
