<svg width="214" height="102" viewBox="0 0 214 102" fill="none" xmlns="http://www.w3.org/2000/svg">
<path d="M153.084 42.5337V40.8C153.084 18.2577 134.969 0 112.602 0C103.19 0 94.2843 3.264 87.3012 8.976C84.6699 11.1177 82.241 13.5657 80.2169 16.3197C74.9546 12.3417 68.6795 10.2 62 10.2C45.3009 10.2 31.3012 23.9697 31.3012 40.8C14.5015 40.8 0.939758 54.4677 0.939758 71.4C0.939758 88.3317 14.5015 102 31.3012 102H142.964C159.663 102 173.663 88.2297 173.663 71.4C173.663 58.2417 165.027 46.7157 153.084 42.5337Z" fill="#406833"/>
<path d="M199.086 61.0076V59.8125C199.086 44.2732 186.598 31.6875 171.18 31.6875C164.692 31.6875 158.553 33.9375 153.739 37.875C151.925 39.3513 150.251 41.0388 148.856 42.9373C145.228 40.1951 140.903 38.7188 136.298 38.7188C124.787 38.7188 115.136 48.2107 115.136 59.8125C103.556 59.8125 94.2069 69.2341 94.2069 80.9062C94.2069 92.5779 103.556 102 115.136 102H192.11C203.621 102 213.271 92.5076 213.271 80.9062C213.271 71.8357 207.318 63.8904 199.086 61.0076Z" fill="#75B03A"/>
</svg>
